<?xml version="1.0" encoding="UTF-8"?>
<svg xmlns="http://www.w3.org/2000/svg" xmlns:xlink="http://www.w3.org/1999/xlink" width="32px" height="32px" viewBox="0 0 32 32" version="1.1">
<defs>
<clipPath id="clip1">
  <path d="M 0.515625 0 L 31.484375 0 L 31.484375 30.964844 L 0.515625 30.964844 Z M 0.515625 0 "/>
</clipPath>
<clipPath id="clip2">
  <path d="M 5.066406 0.867188 L 26.746094 0.867188 L 26.746094 30.289062 L 5.066406 30.289062 Z M 5.066406 0.867188 "/>
</clipPath>
<clipPath id="clip3">
  <path d="M 10 13 L 22 13 L 22 30.289062 L 10 30.289062 Z M 10 13 "/>
</clipPath>
</defs>
<g id="surface1">
<g clip-path="url(#clip1)" clip-rule="nonzero">
<path style=" stroke:none;fill-rule:nonzero;fill:rgb(100%,100%,100%);fill-opacity:1;" d="M 0.515625 0 L 31.484375 0 L 31.484375 30.964844 L 0.515625 30.964844 Z M 0.515625 0 "/>
<path style=" stroke:none;fill-rule:nonzero;fill:rgb(0%,0%,0%);fill-opacity:1;" d="M 0.515625 0 L 31.484375 0 L 31.484375 30.964844 L 0.515625 30.964844 Z M 0.515625 0 "/>
</g>
<g clip-path="url(#clip2)" clip-rule="nonzero">
<path style=" stroke:none;fill-rule:evenodd;fill:rgb(92.54902%,43.529412%,34.901962%);fill-opacity:1;" d="M 9.4375 14.015625 C 8.753906 7.792969 12.335938 3.417969 19.050781 0.925781 C 14.9375 6.339844 22.554688 12.207031 22.976562 17.828125 C 23.960938 16.125 24.519531 13.851562 24.628906 10.808594 C 29.667969 18.824219 25.492188 31.929688 14.414062 30.046875 C 13.390625 29.875 12.414062 29.546875 11.519531 29.058594 C 7.480469 26.871094 5.066406 22.101562 5.066406 17.542969 C 5.066406 14.636719 6.292969 12.046875 7.875 9.984375 C 8.085938 12.003906 8.539062 13.507812 9.4375 14.015625 Z M 9.4375 14.015625 "/>
</g>
<g clip-path="url(#clip3)" clip-rule="nonzero">
<path style=" stroke:none;fill-rule:evenodd;fill:rgb(98.039216%,81.960785%,36.078432%);fill-opacity:1;" d="M 13.023438 23.003906 C 11.882812 20.007812 12.042969 15.175781 15.238281 13.480469 C 15.261719 19.039062 20.652344 19.746094 19.652344 25.675781 C 20.574219 24.617188 21.042969 22.925781 21.121094 21.585938 C 22.582031 24.984375 21.4375 27.699219 19.355469 29.082031 C 13.015625 33.289062 7.5625 24.757812 11.191406 20.085938 C 11.300781 21.128906 12.558594 22.742188 13.023438 23.003906 Z M 13.023438 23.003906 "/>
</g>
</g>
</svg>
